<mxfile host="app.diagrams.net" modified="2023-08-27T18:24:19.068Z" agent="Mozilla/5.0 (Windows NT 10.0; Win64; x64) AppleWebKit/537.36 (KHTML, like Gecko) Chrome/115.0.0.0 Safari/537.36 OPR/101.0.0.0" version="21.6.9" etag="UaSihyWCRlQQGgeHiAH-" type="github">
  <diagram name="PÃ¡gina-1" id="EtKQ7Tlp6VOO2K-3pah8">
    <mxGraphModel>
      <root>
        <mxCell id="0" />
        <mxCell id="1" parent="0" />
      </root>
    </mxGraphModel>
  </diagram>
</mxfile>
